<svg width="49" height="49" viewBox="0 0 49 49" fill="none" xmlns="http://www.w3.org/2000/svg">
<path d="M49 24.5C49 38.031 38.031 49 24.5 49C10.969 49 0 38.031 0 24.5C0 10.969 10.969 0 24.5 0C38.031 0 49 10.969 49 24.5Z" fill="#1964A9"/>
<path fill-rule="evenodd" clip-rule="evenodd" d="M48.7232 28.1951C48.7481 28.0306 48.7713 27.8655 48.7929 27.6999C48.9295 26.6526 49 25.5845 49 24.5C49 23.4155 48.9295 22.3474 48.7929 21.3001C48.7713 21.1345 48.7481 20.9694 48.7232 20.8049C48.6982 20.6398 48.6716 20.4752 48.6433 20.3111L47.672 20.4378L47.8013 21.4294C47.9324 22.4339 48 23.4588 48 24.5C48 25.5412 47.9324 26.5661 47.8013 27.5706L47.672 28.5622L48.6433 28.6889C48.6716 28.5248 48.6982 28.3602 48.7232 28.1951ZM47.505 32.9467L46.6003 32.5715L46.2172 33.4953C45.4252 35.4052 44.3883 37.1885 43.1454 38.8059L42.536 39.5988L43.3128 40.1957C43.4197 40.0678 43.5253 39.9387 43.6296 39.8086C43.7338 39.6785 43.8367 39.5474 43.9383 39.4152C45.2338 37.7293 46.315 35.8701 47.1409 33.8783C47.2047 33.7245 47.267 33.5699 47.3277 33.4145C47.3883 33.2593 47.4474 33.1034 47.505 32.9467ZM40.1957 43.3128L39.5988 42.536L38.8059 43.1454C37.1885 44.3883 35.4052 45.4252 33.4952 46.2172L32.5715 46.6003L32.9467 47.505C33.1034 47.4474 33.2593 47.3883 33.4145 47.3277C33.5699 47.267 33.7245 47.2047 33.8783 47.1409C35.8701 46.315 37.7293 45.2338 39.4152 43.9383C39.5474 43.8367 39.6785 43.7338 39.8086 43.6296C39.9387 43.5253 40.0678 43.4197 40.1957 43.3128ZM28.6889 48.6433L28.5622 47.672L27.5706 47.8013C26.5661 47.9324 25.5412 48 24.5 48C23.4588 48 22.4339 47.9324 21.4294 47.8013L20.4378 47.672L20.3111 48.6433C20.4752 48.6716 20.6398 48.6982 20.8049 48.7232C20.9694 48.7481 21.1345 48.7713 21.3001 48.7929C22.3474 48.9295 23.4155 49 24.5 49C25.5845 49 26.6526 48.9295 27.6999 48.7929C27.8655 48.7713 28.0306 48.7481 28.1951 48.7232C28.3602 48.6982 28.5248 48.6716 28.6889 48.6433ZM16.0533 47.505L16.4285 46.6003L15.5047 46.2172C13.5948 45.4252 11.8115 44.3883 10.1941 43.1454L9.40119 42.536L8.80425 43.3128C8.93221 43.4197 9.06127 43.5253 9.19142 43.6296C9.32147 43.7338 9.45259 43.8367 9.58479 43.9383C11.2707 45.2338 13.1299 46.315 15.1217 47.1409C15.2755 47.2047 15.4301 47.267 15.5855 47.3277C15.7407 47.3883 15.8966 47.4474 16.0533 47.505ZM5.68715 40.1957L6.46396 39.5988L5.85463 38.8059C4.61173 37.1885 3.57482 35.4052 2.7828 33.4952L2.39974 32.5715L1.49501 32.9467C1.55255 33.1034 1.61165 33.2593 1.67229 33.4145C1.73302 33.5699 1.79528 33.7245 1.85907 33.8783C2.68503 35.8701 3.76618 37.7293 5.06171 39.4152C5.1633 39.5474 5.2662 39.6785 5.3704 39.8086C5.47469 39.9387 5.58028 40.0678 5.68715 40.1957ZM0.356693 28.6889L1.32803 28.5622L1.19868 27.5706C1.06765 26.5661 1 25.5412 1 24.5C1 23.4588 1.06765 22.4339 1.19868 21.4294L1.32803 20.4378L0.356693 20.3111C0.32843 20.4752 0.301799 20.6398 0.276816 20.8049C0.251929 20.9694 0.228679 21.1345 0.207082 21.3001C0.0704703 22.3474 0 23.4155 0 24.5C0 25.5845 0.0704701 26.6526 0.207081 27.6999C0.228678 27.8655 0.251929 28.0306 0.276815 28.1951C0.301798 28.3602 0.32843 28.5248 0.356693 28.6889ZM1.49501 16.0533L2.39975 16.4285L2.7828 15.5047C3.57483 13.5948 4.61173 11.8115 5.85463 10.1941L6.46396 9.40119L5.68716 8.80425C5.58029 8.93221 5.4747 9.06127 5.37041 9.19142C5.2662 9.32147 5.1633 9.45259 5.06172 9.58479C3.76618 11.2707 2.68504 13.1299 1.85907 15.1217C1.79529 15.2755 1.73302 15.4301 1.67229 15.5855C1.61166 15.7407 1.55255 15.8966 1.49501 16.0533ZM8.80426 5.68715L9.4012 6.46396L10.1941 5.85463C11.8115 4.61173 13.5948 3.57482 15.5048 2.7828L16.4285 2.39974L16.0533 1.49501C15.8966 1.55255 15.7407 1.61165 15.5855 1.67229C15.4301 1.73302 15.2755 1.79528 15.1217 1.85907C13.1299 2.68503 11.2707 3.76618 9.58479 5.06171C9.4526 5.1633 9.32147 5.2662 9.19143 5.3704C9.06128 5.47469 8.93221 5.58028 8.80426 5.68715ZM20.3111 0.356693L20.4378 1.32803L21.4294 1.19868C22.4339 1.06765 23.4588 1 24.5 1C25.5412 1 26.5661 1.06765 27.5706 1.19868L28.5622 1.32803L28.6889 0.356693C28.5248 0.32843 28.3602 0.301799 28.1951 0.276816C28.0306 0.251929 27.8655 0.228679 27.6999 0.207082C26.6526 0.0704703 25.5845 0 24.5 0C23.4155 0 22.3474 0.07047 21.3001 0.207081C21.1345 0.228678 20.9694 0.251929 20.8049 0.276815C20.6398 0.301798 20.4752 0.32843 20.3111 0.356693ZM32.9467 1.49501L32.5715 2.39975L33.4953 2.7828C35.4052 3.57483 37.1885 4.61173 38.8059 5.85463L39.5988 6.46396L40.1957 5.68716C40.0678 5.58029 39.9387 5.4747 39.8086 5.37041C39.6785 5.2662 39.5474 5.1633 39.4152 5.06172C37.7293 3.76618 35.8701 2.68504 33.8783 1.85907C33.7245 1.79529 33.5699 1.73302 33.4145 1.67229C33.2593 1.61166 33.1034 1.55255 32.9467 1.49501ZM43.3128 8.80426L42.536 9.4012L43.1454 10.1941C44.3883 11.8115 45.4252 13.5948 46.2172 15.5048L46.6003 16.4285L47.505 16.0533C47.4474 15.8966 47.3883 15.7407 47.3277 15.5855C47.267 15.4301 47.2047 15.2755 47.1409 15.1217C46.315 13.1299 45.2338 11.2707 43.9383 9.58479C43.8367 9.4526 43.7338 9.32147 43.6296 9.19143C43.5253 9.06128 43.4197 8.93221 43.3128 8.80426Z" fill="#72B8F9"/>
<circle cx="24.5" cy="24.5" r="19.5" fill="#72B8F9"/>
<circle cx="24.5" cy="24.5" r="12.5" fill="#E3F2FF"/>
</svg>
